<svg width="33" height="26" viewBox="0 0 33 26" fill="none" xmlns="http://www.w3.org/2000/svg">
<path d="M27.9767 2.19539C27.967 2.17664 27.951 2.16219 27.9318 2.15477C25.7938 1.14023 23.5377 0.416514 21.2198 0.00171157C21.1989 -0.0022352 21.1775 0.000683555 21.1583 0.0100557C21.1392 0.0194278 21.1234 0.0347796 21.1131 0.0539421C20.8057 0.630968 20.5266 1.22367 20.2769 1.82978C17.7771 1.43739 15.2342 1.43739 12.7344 1.82978C12.4837 1.22217 12.2008 0.629322 11.8869 0.0539421C11.8761 0.0353506 11.8602 0.0204774 11.8413 0.0111863C11.8223 0.00189514 11.8011 -0.00140075 11.7803 0.00171157C9.45838 0.414646 7.19831 1.13841 5.05709 2.15477C5.03831 2.163 5.02257 2.17724 5.01219 2.19539C0.735816 8.80545 -0.437102 15.2472 0.135327 21.6135C0.136947 21.6295 0.141776 21.645 0.149506 21.659C0.157236 21.673 0.167696 21.6852 0.180223 21.6948C2.67121 23.6001 5.45696 25.0542 8.4187 25.9951C8.43999 26.0019 8.4628 26.0016 8.48394 25.9943C8.50508 25.9871 8.52348 25.9731 8.53656 25.9545C9.17203 25.0599 9.73514 24.1126 10.2202 23.1224C10.2266 23.1088 10.2303 23.0939 10.2309 23.0788C10.2316 23.0636 10.2292 23.0485 10.2239 23.0343C10.2187 23.0201 10.2106 23.0072 10.2003 22.9964C10.19 22.9856 10.1777 22.9771 10.164 22.9715C9.27427 22.6189 8.41293 22.194 7.58812 21.7006C7.57354 21.6913 7.56133 21.6786 7.5525 21.6635C7.54367 21.6484 7.53849 21.6313 7.53739 21.6136C7.53629 21.596 7.5393 21.5783 7.54618 21.5622C7.55305 21.546 7.56359 21.5317 7.5769 21.5207C7.75087 21.3872 7.92484 21.2479 8.08759 21.1086C8.10195 21.0956 8.11959 21.087 8.13847 21.084C8.15734 21.0809 8.17667 21.0834 8.19422 21.0912C13.593 23.6389 19.4408 23.6389 24.7778 21.0912C24.7948 21.0826 24.8139 21.0791 24.8327 21.0812C24.8516 21.0832 24.8695 21.0907 24.8844 21.1028C25.0472 21.2421 25.2212 21.3872 25.3951 21.5207C25.4084 21.5317 25.419 21.546 25.4259 21.5622C25.4327 21.5783 25.4357 21.596 25.4346 21.6136C25.4335 21.6313 25.4284 21.6484 25.4195 21.6635C25.4107 21.6786 25.3985 21.6913 25.3839 21.7006C24.5612 22.1965 23.6995 22.6197 22.808 22.9657C22.7944 22.9713 22.782 22.9798 22.7717 22.9906C22.7614 23.0014 22.7534 23.0143 22.7481 23.0285C22.7428 23.0427 22.7404 23.0578 22.7411 23.073C22.7417 23.0881 22.7454 23.103 22.7519 23.1166C23.2454 24.1019 23.8081 25.0485 24.4355 25.9486C24.4485 25.9673 24.4669 25.9813 24.4881 25.9885C24.5092 25.9958 24.532 25.9961 24.5533 25.9893C27.5236 25.0526 30.3174 23.5983 32.8143 21.689C32.827 21.6797 32.8377 21.6675 32.8454 21.6535C32.8532 21.6395 32.8579 21.6238 32.8591 21.6077C33.5438 14.2548 31.7031 7.8653 27.9767 2.19539ZM11.0283 17.7369C9.40081 17.7369 8.06514 16.1932 8.06514 14.3013C8.06514 12.4093 9.37836 10.8598 11.0283 10.8598C12.6951 10.8598 14.0195 12.4152 13.9915 14.2954C13.9915 16.1932 12.6782 17.7369 11.0283 17.7369ZM21.9942 17.7369C20.3667 17.7369 19.0311 16.1932 19.0311 14.3013C19.0311 12.4093 20.3387 10.8598 21.9942 10.8598C23.661 10.8598 24.9855 12.4152 24.9574 14.2954C24.9574 16.1932 23.6554 17.7369 21.9942 17.7369Z" fill="#BAB2B2"/>
</svg>
