<svg width="30" height="30" viewBox="0 0 30 30" fill="none" xmlns="http://www.w3.org/2000/svg">
<path d="M15 0C7.00746 0 0.5 6.73185 0.5 15C0.5 23.2681 7.00746 30 15 30C22.9925 30 29.5 23.2681 29.5 15C29.5 6.73185 22.9925 0 15 0ZM24.5887 6.91935C26.3135 9.09677 27.3601 11.879 27.3835 14.9032C26.9742 14.8125 22.8815 13.9536 18.7595 14.4919C18.4204 13.6452 18.1046 12.8952 17.672 11.9758C22.25 10.0403 24.3256 7.28831 24.5887 6.9254V6.91935ZM23.2089 5.4375C22.9867 5.76411 21.1216 8.35887 16.719 10.0645C14.6901 6.20564 12.4391 3.03629 12.1 2.56452C16.029 1.58468 20.1685 2.64315 23.2147 5.4375H23.2089ZM9.73206 3.42339C10.0595 3.88911 12.2696 7.05847 14.3218 10.8327C8.52762 12.4234 3.42339 12.3992 2.87379 12.3931C3.68064 8.41935 6.27077 5.11694 9.73206 3.42339ZM2.61653 15.0181C2.61653 14.8851 2.61653 14.7581 2.62238 14.625C3.16613 14.6371 9.16492 14.7157 15.3508 12.8044C15.7075 13.5242 16.0466 14.25 16.3565 14.9758C11.8778 16.2823 7.80847 20.0262 5.80302 23.5827C3.82097 21.3145 2.61653 18.3085 2.61653 15.0181ZM7.39919 25.125C8.69133 22.3911 12.2052 18.8589 17.1984 17.0927C18.9349 21.7681 19.654 25.6875 19.8411 26.8065C15.8595 28.5605 11.071 28.0827 7.39919 25.1189V25.125ZM21.9226 25.6391C21.794 24.8589 21.1391 21.1089 19.5137 16.506C23.396 15.8649 26.8046 16.9173 27.2256 17.0565C26.676 20.619 24.694 23.6976 21.9167 25.6452L21.9226 25.6391Z" fill="#BAB2B2"/>
</svg>
