<svg width="30" height="28" viewBox="0 0 30 28" fill="none" xmlns="http://www.w3.org/2000/svg">
<path d="M15.0032 6.82115C10.8886 6.82115 7.56966 10.0263 7.56966 14C7.56966 17.9737 10.8886 21.1788 15.0032 21.1788C19.1179 21.1788 22.4368 17.9737 22.4368 14C22.4368 10.0263 19.1179 6.82115 15.0032 6.82115ZM15.0032 18.6672C12.3442 18.6672 10.1704 16.5741 10.1704 14C10.1704 11.4259 12.3378 9.33281 15.0032 9.33281C17.6687 9.33281 19.836 11.4259 19.836 14C19.836 16.5741 17.6622 18.6672 15.0032 18.6672ZM24.4747 6.5275C24.4747 7.45844 23.6984 8.20194 22.7409 8.20194C21.7769 8.20194 21.007 7.45219 21.007 6.5275C21.007 5.60281 21.7834 4.85306 22.7409 4.85306C23.6984 4.85306 24.4747 5.60281 24.4747 6.5275ZM29.3981 8.22693C29.2881 5.98393 28.7576 3.9971 27.0561 2.36015C25.3611 0.723195 23.3037 0.210867 20.9812 0.0984045C18.5874 -0.0328015 11.4126 -0.0328015 9.01885 0.0984045C6.70273 0.204619 4.6454 0.716947 2.94389 2.3539C1.24239 3.99085 0.718349 5.97769 0.601896 8.22069C0.466035 10.5324 0.466035 17.4613 0.601896 19.7731C0.71188 22.0161 1.24239 24.0029 2.94389 25.6399C4.6454 27.2768 6.69626 27.7891 9.01885 27.9016C11.4126 28.0328 18.5874 28.0328 20.9812 27.9016C23.3037 27.7954 25.3611 27.2831 27.0561 25.6399C28.7511 24.0029 29.2817 22.0161 29.3981 19.7731C29.534 17.4613 29.534 10.5387 29.3981 8.22693ZM26.3056 22.2535C25.801 23.4781 24.8241 24.4215 23.5496 24.9151C21.6411 25.6461 17.1123 25.4774 15.0032 25.4774C12.8941 25.4774 8.35895 25.6399 6.45689 24.9151C5.18885 24.4278 4.21194 23.4843 3.70084 22.2535C2.94389 20.4104 3.11857 16.0368 3.11857 14C3.11857 11.9632 2.95036 7.5834 3.70084 5.74651C4.20547 4.52192 5.18238 3.57849 6.45689 3.0849C8.36542 2.3539 12.8941 2.52259 15.0032 2.52259C17.1123 2.52259 21.6475 2.36015 23.5496 3.0849C24.8176 3.57224 25.7945 4.51568 26.3056 5.74651C27.0626 7.58965 26.8879 11.9632 26.8879 14C26.8879 16.0368 27.0626 20.4166 26.3056 22.2535Z" fill="#BAB2B2"/>
</svg>
