<svg width="32" height="30" viewBox="0 0 32 30" fill="none" xmlns="http://www.w3.org/2000/svg">
<path d="M31.8847 21.9414C31.6605 21.364 31.2384 21.0565 30.7571 20.7992C30.6648 20.749 30.5856 20.705 30.5131 20.6799C30.368 20.6109 30.223 20.5418 30.0779 20.4665C28.5744 19.7071 27.4007 18.7531 26.583 17.6172C26.3516 17.2982 26.1507 16.96 25.983 16.6067C25.9104 16.4184 25.917 16.3117 25.9698 16.2113C26.0192 16.1367 26.0843 16.0726 26.161 16.023C26.4182 15.8598 26.6885 15.6967 26.8666 15.5837C27.1897 15.3828 27.4469 15.2259 27.6051 15.1192C28.225 14.7113 28.6536 14.272 28.9239 13.7824C29.1122 13.4452 29.222 13.0734 29.2459 12.6922C29.2698 12.311 29.2072 11.9294 29.0624 11.5732C28.6536 10.5502 27.6381 9.91632 26.405 9.91632C26.1458 9.91534 25.8871 9.94059 25.6335 9.99163C25.5676 10.0042 25.495 10.023 25.4291 10.0356C25.4423 9.33264 25.4225 8.59833 25.3565 7.87029C25.1258 5.30962 24.1828 3.9728 23.2003 2.89958C22.5747 2.22869 21.8373 1.66042 21.0177 1.21757C19.5274 0.40795 17.8393 0 15.9996 0C14.1598 0 12.4784 0.40795 10.9881 1.21757C10.1635 1.6588 9.42145 2.22718 8.79228 2.89958C7.80977 3.96653 6.86682 5.30962 6.63603 7.87029C6.57009 8.59833 6.5569 9.33891 6.56349 10.0356C6.49755 10.0167 6.43161 10.0042 6.35908 9.99163C6.10544 9.94059 5.84682 9.91534 5.58757 9.91632C4.35449 9.91632 3.339 10.5502 2.93017 11.5732C2.78435 11.9289 2.72066 12.3103 2.74341 12.6915C2.76617 13.0727 2.87484 13.4447 3.06205 13.7824C3.33241 14.272 3.76761 14.705 4.38086 15.1192C4.54571 15.2259 4.80288 15.3828 5.1194 15.5837C5.29084 15.6904 5.54801 15.8473 5.79858 16.0042C5.88572 16.0578 5.95989 16.1284 6.01619 16.2113C6.06894 16.3117 6.06894 16.4247 5.98981 16.6255C5.82551 16.972 5.62911 17.3039 5.40294 17.6172C4.60506 18.728 3.46429 19.6632 2.0136 20.4163C1.25528 20.8117 0.450805 21.0753 0.114509 21.9477C-0.142659 22.6067 0.0287859 23.3598 0.675003 23.9937C0.912878 24.2305 1.1889 24.4296 1.49267 24.5837C2.12376 24.9132 2.79471 25.1682 3.49066 25.3431C3.63377 25.3778 3.76974 25.435 3.8929 25.5126C4.13029 25.7071 4.09732 26.0084 4.40724 26.4414C4.5659 26.6654 4.76719 26.8591 5.0007 27.0126C5.66011 27.4456 6.40524 27.477 7.18993 27.5021C7.90209 27.5272 8.70656 27.5586 9.62314 27.8473C10.0056 27.9665 10.4012 28.1987 10.8562 28.4686C11.964 29.1213 13.4741 30 15.9996 30C18.5251 30 20.0417 29.1151 21.1495 28.4686C21.6045 28.205 22.0002 27.9728 22.3694 27.8536C23.286 27.5649 24.0971 27.5335 24.8026 27.5084C25.5873 27.477 26.3325 27.4519 26.9919 27.0188C27.2679 26.8347 27.4976 26.5946 27.6645 26.3159C27.8887 25.9519 27.8821 25.6946 28.0997 25.5126C28.2166 25.4381 28.3459 25.3829 28.4821 25.3494C29.1873 25.174 29.8672 24.9169 30.5065 24.5837C30.8288 24.4187 31.1187 24.2022 31.3637 23.9435L31.3703 23.9372C31.9836 23.3159 32.1352 22.5879 31.8847 21.9414ZM29.6427 23.09C28.2777 23.8117 27.3677 23.7301 26.6556 24.1632C26.0555 24.5335 26.4116 25.3243 25.9764 25.613C25.4423 25.9644 23.8531 25.5879 21.8089 26.2343C20.1209 26.7678 19.0394 28.2929 16.0062 28.2929C12.9729 28.2929 11.9179 26.7678 10.1968 26.228C8.15266 25.5816 6.56349 25.9644 6.02938 25.6067C5.59417 25.318 5.95025 24.5272 5.35019 24.1569C4.64462 23.7239 3.73464 23.7992 2.36308 23.0837C1.49267 22.6255 1.98722 22.3431 2.27736 22.2113C7.22949 19.9268 8.02078 16.3996 8.06034 16.1423C8.09991 15.8285 8.15266 15.5774 7.78339 15.2573C7.42731 14.9435 5.85793 14.0209 5.42272 13.7322C4.70397 13.2552 4.38746 12.772 4.61825 12.1883C4.7831 11.7803 5.17874 11.6297 5.60076 11.6297C5.73393 11.6305 5.86661 11.6453 5.99641 11.6736C6.78769 11.8368 7.5592 12.2134 8.001 12.3138C8.05498 12.3262 8.11031 12.3326 8.16585 12.3326C8.40323 12.3326 8.48896 12.2197 8.46918 11.9623C8.41642 11.1402 8.29773 9.53347 8.42961 8.03347C8.61424 5.96862 9.31321 4.94561 10.1441 4.04184C10.5463 3.60879 12.419 1.71967 16.0062 1.71967C19.5933 1.71967 21.4727 3.59623 21.8683 4.02929C22.6991 4.93305 23.3981 5.95607 23.5827 8.02092C23.7212 9.52092 23.6025 11.1276 23.5432 11.9498C23.5234 12.2197 23.6091 12.3201 23.8465 12.3201C23.9021 12.3201 23.9574 12.3137 24.0114 12.3013C24.4532 12.2008 25.2247 11.8243 26.016 11.6611C26.1457 11.6327 26.2784 11.618 26.4116 11.6172C26.8336 11.6172 27.2293 11.7741 27.3941 12.1757C27.6249 12.7657 27.315 13.2427 26.5896 13.7197C26.1544 14.0084 24.585 14.931 24.229 15.2448C23.8597 15.5649 23.9125 15.8159 23.952 16.1297C23.985 16.3933 24.7763 19.9205 29.735 22.1987C30.0185 22.3431 30.5131 22.6255 29.6427 23.09Z" fill="#BAB2B2"/>
</svg>
